<?xml version="1.0" encoding="UTF-8" standalone="no"?>
<!-- Svg Vector Icons : http://www.onlinewebfonts.com/icon -->

<svg
   version="1.1"
   x="0px"
   y="0px"
   viewBox="0 0 1000 1000"
   enable-background="new 0 0 1000 1000"
   xml:space="preserve"
   id="svg16"
   sodipodi:docname="logo.svg"
   inkscape:version="1.1.1 (3bf5ae0d25, 2021-09-20)"
   xmlns:inkscape="http://www.inkscape.org/namespaces/inkscape"
   xmlns:sodipodi="http://sodipodi.sourceforge.net/DTD/sodipodi-0.dtd"
   xmlns="http://www.w3.org/2000/svg"
   xmlns:svg="http://www.w3.org/2000/svg"><defs
   id="defs20"><rect
     x="53.37146"
     y="37.02003"
     width="281.09947"
     height="358.4038"
     id="rect38577" /><rect
     x="95.336441"
     y="58.38067"
     width="373.00394"
     height="540.09997"
     id="rect31278" /><rect
     x="35.669653"
     y="49.936586"
     width="268.08797"
     height="541.9846"
     id="rect20679" /><rect
     x="40.34783"
     y="79.397558"
     width="131.88105"
     height="342.94102"
     id="rect16559" /><rect
     x="49.416736"
     y="49.168023"
     width="139.51058"
     height="478.83681"
     id="rect10732" /><rect
     x="84.159965"
     y="72.768657"
     width="346.50571"
     height="457.36624"
     id="rect3367" /></defs><sodipodi:namedview
   id="namedview18"
   pagecolor="#ffffff"
   bordercolor="#666666"
   borderopacity="1.0"
   inkscape:pageshadow="2"
   inkscape:pageopacity="0.0"
   inkscape:pagecheckerboard="0"
   showgrid="false"
   inkscape:zoom="0.871"
   inkscape:cx="500.57405"
   inkscape:cy="500.57405"
   inkscape:window-width="1920"
   inkscape:window-height="1051"
   inkscape:window-x="0"
   inkscape:window-y="0"
   inkscape:window-maximized="1"
   inkscape:current-layer="svg16"
   showguides="true"
   inkscape:guide-bbox="true"><sodipodi:guide
     position="972.44546,566.01607"
     orientation="0,-1"
     id="guide35551" /><sodipodi:guide
     position="911.59587,430.53961"
     orientation="0,-1"
     id="guide35553" /></sodipodi:namedview>
<metadata
   id="metadata2"> Svg Vector Icons : http://www.onlinewebfonts.com/icon </metadata>

<g
   aria-label="^"
   id="g42218"
   style="font-size:192px;line-height:1.25;white-space:pre;shape-inside:url(#rect38577);fill:#5aa02c"
   transform="matrix(1.918495,0,0,2.5944026,68.13462,260.35151)"><path
     d="m 142.99609,66.925781 50.90625,52.218749 h -18.84375 l -41.25,-37.031249 -41.249996,37.031249 H 73.714844 L 124.62109,66.925781 Z"
     id="path42216"
     style="fill:#5aa02c" /></g><g
   aria-label="^"
   id="g34845"
   style="font-size:192px;line-height:1.25;white-space:pre;shape-inside:url(#rect31278);fill:#e6e6e6;stroke:#000000"
   transform="matrix(1.5841055,0,0,2.5085365,364.12582,213.03224)" /><text
   xml:space="preserve"
   id="text16557"
   style="font-size:192px;line-height:1.25;font-family:sans-serif;white-space:pre;shape-inside:url(#rect16559)" /><g
   transform="matrix(0.1,0,0,-0.1,0,511)"
   id="g12"
   style="fill:#502d16"><path
     d="M 7026.4,4879.6 C 6596,4424.4 6369.7,3795 6369.7,3038.8 c 0,-291 22.4,-373.1 116.9,-415.4 84.6,-37.3 116.9,-34.8 186.6,22.4 59.7,44.8 62.2,62.2 77.1,415.4 14.9,328.3 67.2,686.6 104.5,723.9 7.5,10 301,-273.6 654.2,-624.4 572.1,-572.1 649.3,-639.3 721.4,-639.3 104.5,0 179.1,74.6 179.1,179.1 0,74.6 -72.1,154.2 -701.5,783.6 l -704,704 57.2,109.4 c 32.3,59.7 119.4,181.6 194,271.1 149.3,179.1 171.7,278.6 84.6,365.7 -87,87.1 -198.9,64.7 -313.4,-54.7 z"
     id="path4"
     style="fill:#502d16" /><path
     d="m 9638.4,2464.2 c -29.9,-14.9 -119.4,-84.6 -199,-149.3 -186.6,-151.7 -537.3,-325.9 -793.5,-393 -149.3,-39.8 -301,-57.2 -611.9,-64.7 -462.7,-14.9 -721.4,14.9 -1216.4,141.8 -624.4,156.7 -1082.1,206.5 -1562.2,171.6 -718.9,-54.7 -1261.2,-296 -1699,-763.7 C 3135.9,959.3 2912,324.9 2912,-418.9 c 0,-144.3 7.5,-283.6 14.9,-306 22.4,-57.2 151.7,-116.9 216.4,-97 124.4,37.3 141.8,77.1 141.8,330.8 2.5,482.6 74.6,823.4 248.8,1184.1 238.8,492.5 582.1,791 1114.4,972.6 557.2,189.1 1174.1,181.6 2007.4,-22.4 589.6,-146.8 803.5,-174.1 1268.7,-176.6 233.8,0 495,14.9 584.6,29.8 276.1,52.2 634.3,179.1 833.3,291.1 243.8,139.3 532.3,375.6 549.7,450.2 24.9,94.5 -9.9,179.1 -89.5,221.4 -87,44.9 -97,44.9 -164.1,5.1 z"
     id="path6"
     style="fill:#502d16" /><path
     d="m 6446.8,-578.1 -99.5,-151.8 c -54.7,-84.6 -141.8,-199 -194,-258.7 -109.4,-121.9 -420.4,-345.8 -477.6,-345.8 L 5257.8,-1516 c -72.1,-44.8 -480.1,-94.5 -778.6,-94.5 -380.6,0 -594.5,27.4 -970.1,114.4 -582.1,136.8 -848.3,186.6 -1139.3,209 C 1501.6,-1217.5 733,-1443.8 233,-1914 81.3,-2058.3 61.4,-2142.9 163.4,-2242.4 c 92,-94.5 159.2,-79.6 363.2,84.6 228.8,181.6 410.4,283.6 646.8,363.2 557.2,191.5 1209,181.6 2039.8,-24.9 1206.5,-303.5 2109.4,-226.4 2823.4,241.3 664.2,437.8 1012.4,1124.4 1047.3,2059.7 12.4,370.6 9.9,388.1 -42.3,455.2 -39.8,49.8 -74.6,67.2 -139.3,67.2 -154.2,0 -174.1,-47.3 -191.5,-437.8 -12.4,-303.5 -69.6,-691.5 -107,-728.8 z"
     id="path8"
     sodipodi:nodetypes="cccccsccccccccccsccc"
     style="fill:#502d16" /><path
     d="m 1593.6,-2371.6 c -102,-131.8 -79.6,-161.7 671.6,-915.4 l 696.5,-696.5 -72.1,-124.4 c -39.8,-69.6 -124.4,-181.6 -186.6,-253.7 -139.3,-156.7 -164.2,-243.8 -89.6,-338.3 39.8,-49.7 74.6,-67.2 141.8,-67.2 74.6,0 109.4,19.9 196.5,109.5 241.3,253.7 440.3,619.4 544.8,1014.9 74.6,283.6 121.9,704 107,960.2 -12.4,166.7 -19.9,194 -82.1,248.8 -54.7,44.8 -87.1,54.7 -146.8,44.8 -141.8,-27.4 -164.2,-84.6 -164.2,-425.4 0,-266.2 -54.7,-721.4 -89.6,-756.2 -5,-7.5 -301,276.1 -651.7,626.9 -602,602 -646.8,639.3 -731.3,639.3 -69.5,-0.1 -104.4,-17.5 -144.2,-67.3 z"
     id="path10"
     style="fill:#502d16" /></g><g
   aria-label="^"
   id="text31276"
   style="font-size:192px;line-height:1.25;white-space:pre;shape-inside:url(#rect31278);fill:#e6e6e6;stroke:#000000"
   transform="matrix(1.5841055,0,0,2.5085365,-63.582663,213.03224)" /><g
   aria-label="^"
   id="g34841"
   style="font-size:192px;line-height:1.25;white-space:pre;shape-inside:url(#rect31278);fill:#e6e6e6;stroke:#000000"
   transform="matrix(1.5841055,0,0,2.5085365,221.55633,213.03224)" /><g
   aria-label="^"
   id="text38575"
   style="font-size:192px;line-height:1.25;white-space:pre;shape-inside:url(#rect38577)"
   transform="matrix(1.918495,0,0,2.5944026,-106.36538,260.35151)"><path
     d="m 142.99609,66.925781 50.90625,52.218749 h -18.84375 l -41.25,-37.031249 -41.249996,37.031249 H 73.714844 L 124.62109,66.925781 Z"
     id="path42191" /></g><g
   aria-label="^"
   id="g42214"
   style="font-size:192px;line-height:1.25;white-space:pre;shape-inside:url(#rect38577);fill:#5aa02c"
   transform="matrix(1.918495,0,0,2.5944026,-106.36538,260.35151)"><path
     d="m 142.99609,66.925781 50.90625,52.218749 h -18.84375 l -41.25,-37.031249 -41.249996,37.031249 H 73.714844 L 124.62109,66.925781 Z"
     id="path42212"
     style="fill:#5aa02c" /></g><g
   aria-label="^"
   id="g42222"
   style="font-size:192px;line-height:1.25;white-space:pre;shape-inside:url(#rect38577);fill:#5aa02c"
   transform="matrix(1.918495,0,0,2.5944026,417.13456,260.35151)"><path
     d="m 142.99609,66.925781 50.90625,52.218749 h -18.84375 l -41.25,-37.031249 -41.249996,37.031249 H 73.714844 L 124.62109,66.925781 Z"
     id="path42220"
     style="fill:#5aa02c" /></g><g
   aria-label="^"
   id="g42226"
   style="font-size:192px;line-height:1.25;white-space:pre;shape-inside:url(#rect38577);fill:#5aa02c"
   transform="matrix(1.918495,0,0,2.5944026,242.63459,260.35151)"><path
     d="m 142.99609,66.925781 50.90625,52.218749 h -18.84375 l -41.25,-37.031249 -41.249996,37.031249 H 73.714844 L 124.62109,66.925781 Z"
     id="path42224"
     style="fill:#5aa02c" /></g><g
   aria-label="^"
   id="g42230"
   style="font-size:192px;line-height:1.25;white-space:pre;shape-inside:url(#rect38577);fill:#5aa02c"
   transform="matrix(1.918495,0,0,2.5944026,591.63456,260.35151)"><path
     d="m 142.99609,66.925781 50.90625,52.218749 h -18.84375 l -41.25,-37.031249 -41.249996,37.031249 H 73.714844 L 124.62109,66.925781 Z"
     id="path42228"
     style="fill:#5aa02c" /></g></svg>
