<?xml version="1.0" encoding="UTF-8" standalone="no"?>
<!-- Created with Inkscape (http://www.inkscape.org/) -->

<svg
   version="1.1"
   id="svg870"
   xml:space="preserve"
   width="700mm"
   height="700mm"
   viewBox="0 0 2645.6693 2645.6729"
   sodipodi:docname="error.svg"
   inkscape:version="1.1.1 (3bf5ae0d25, 2021-09-20)"
   xmlns:inkscape="http://www.inkscape.org/namespaces/inkscape"
   xmlns:sodipodi="http://sodipodi.sourceforge.net/DTD/sodipodi-0.dtd"
   xmlns="http://www.w3.org/2000/svg"
   xmlns:svg="http://www.w3.org/2000/svg"><sodipodi:namedview
     id="namedview1031"
     pagecolor="#ffffff"
     bordercolor="#666666"
     borderopacity="1.0"
     inkscape:pageshadow="2"
     inkscape:pageopacity="0.0"
     inkscape:pagecheckerboard="0"
     inkscape:document-units="mm"
     showgrid="false"
     inkscape:zoom="0.31825595"
     inkscape:cx="1321.2636"
     inkscape:cy="1316.5504"
     inkscape:window-width="1920"
     inkscape:window-height="1051"
     inkscape:window-x="0"
     inkscape:window-y="0"
     inkscape:window-maximized="1"
     inkscape:current-layer="svg870" /><defs
     id="defs874"><rect
       x="670.25599"
       y="736.44726"
       width="1551.1779"
       height="1066.516"
       id="rect27490" /><rect
       x="703.9849"
       y="875.11085"
       width="1252.7867"
       height="601.89313"
       id="rect11706" /><rect
       x="670.25599"
       y="736.44726"
       width="1551.1779"
       height="1066.516"
       id="rect29814" /></defs><path
     d="M 188.45925,2550.3193 H 1364.5871 c 5.5428,0 11.0241,-0.4543 16.426,-1.3343 h 716.7431 c 85.0685,0 154.0305,-118.6382 154.0305,-264.9815 v -60.5437 c 0,-175.3831 82.6431,-317.5464 184.5875,-317.5464 v 0 c 104.5037,0 189.2225,-145.7566 189.2225,-325.525 v -0.015 c 0,-179.7831 -84.7188,-325.5252 -189.2225,-325.5252 h -30.9992 c -101.9459,0 -184.5883,-142.1632 -184.5883,-317.54611 v 0 c 0,-146.3434 -68.9619,-264.9814 -154.0315,-264.9814 h -203.9817 c 51.086,-52.3305 85.7012,-153.38328 85.7012,-269.46941 v -0.0133 c 0,-169.80972 -74.0579,-307.485191 -165.4164,-307.485191 H 621.84405 c -82.0685,0 -148.6084,123.698001 -148.6084,276.259731 0,182.84853 -79.7371,331.06917 -178.0996,331.06917 h -29.9047 c -100.8261,0 -182.569092,151.9312 -182.569092,339.37021 v 0 c 0,187.4245 81.742992,339.3705 182.569092,339.3705 98.3625,0 178.0908,148.2205 178.0908,331.0543 v 63.125 c 0,85.8876 21.089,162.6232 54.1698,213.2816 h -309.0327 c -92.995792,0 -168.386592,125.6927 -168.386592,280.7186 0,155.0405 75.3908,280.7183 168.386592,280.7183 m 1995.09235,-761.211 c 11.492,0 20.8056,15.2239 20.8056,34.0118 v 21.5892 c 0,18.7879 -9.3136,34.0118 -20.8056,34.0118 l -142.7093,-0.088 h -85.3635 v -5.4559 h 0.5394 c 0,0 8.3272,-6.2627 8.3272,-39.4238 0,-26.3266 -8.3272,-39.1012 -8.3272,-39.1012 v 0 0 h 0.2901 c -0.172,-0.014 -0.2647,-0.014 -0.2647,-0.014 l -0.5648,-0.015 v -5.4266 h 7.531 c 0.3018,-0.059 0.608,-0.088 0.9186,-0.088 h 31.5456 c -11.4954,0 -20.8136,-12.0706 -20.8136,-26.9719 v -17.1306 c 0,-14.0506 8.2736,-25.5785 18.8464,-26.8692 h -39.821 v -4.3559 h 0.4769 c 0,0 7.3568,-5.0014 7.3568,-31.5039 0,-21.0319 -7.3568,-31.2252 -7.3568,-31.2252 v 0 0 h 0.2629 c -0.1576,-0.014 -0.2409,-0.014 -0.2409,-0.014 l -0.4989,-0.015 v -4.3413 h 6.6521 c 0.2667,-0.044 0.5385,-0.058 0.8131,-0.058 h 194.0468 c 10.1522,0 18.3829,12.1586 18.3829,27.1625 v 17.2479 c 0,13.9333 -7.0939,25.4172 -16.2332,26.9866 h 57.8364 c 0.3125,0 0.6204,0.014 0.9232,0.058 h 7.5303 v 4.312 l -0.5648,0.015 c 0,0 -0.096,0 -0.2762,0.014 h 0.2999 c 0,0 -8.3299,10.1199 -8.3299,31.0198 0,26.3119 8.3299,31.2839 8.3299,31.2839 h 0.5411 v 4.3266 h -83.3276 l -144.8358,0.059 h 188.0776 M 657.11565,291.85491 c 2.7625,0 5.5515,0.132 8.3493,0.42534 72.4083,7.5972 127.4139,111.80333 122.8741,232.74412 -4.3727,116.27682 -62.1761,205.69902 -130.9771,205.69902 -2.7626,0 -5.5516,-0.1468 -8.3494,-0.4401 -72.3994,-7.5825 -127.4138,-111.7887 -122.874,-232.74398 4.3726,-116.27693 62.1848,-205.6844 130.9771,-205.6844"
     style="fill:#dce9f8;fill-opacity:1;fill-rule:nonzero;stroke:none;stroke-width:0.113595"
     id="path882" /><g
     id="g29873"
     transform="translate(-156.3848,41.606798)"><path
       d="m 1337.5583,235.87436 c -11.7403,44.56347 -57.3784,71.17187 -101.928,59.41787 -44.5634,-11.754 -71.1582,-57.39227 -59.4179,-101.9556 11.7541,-44.56333 57.3923,-71.17186 101.9419,-59.41773 44.5496,11.754 71.158,57.406 59.404,101.95546"
       style="fill:#f3c267;fill-opacity:1;fill-rule:nonzero;stroke:none;stroke-width:0.137796"
       id="path946" /><path
       d="m 1210.386,216.01796 c -6.2697,23.82494 7.9508,48.2288 31.762,54.51227 23.8251,6.28346 48.2288,-7.93707 54.4985,-31.76213 l -86.2605,-22.75014"
       style="fill:#ebebe9;fill-opacity:1;fill-rule:nonzero;stroke:none;stroke-width:0.137796"
       id="path948" /></g><path
     d="m 2243.7489,1086.7673 -117.8573,120.1034 145.4028,-27.1321 z"
     style="fill:#f35f52;fill-opacity:1;fill-rule:nonzero;stroke:none;stroke-width:0.137796"
     id="path952" /><path
     d="m 2350.0864,1069.8322 35.4825,-0.6339 c 0,0 44.6875,-33.3744 46.0655,-45.1697 1.3641,-11.7953 -5.9667,-36.76412 0.9645,-39.90586 6.9312,-3.128 21.6203,-5.60826 30.894,10.01787 6.7381,11.34069 1.1299,52.72089 5.2913,55.49049 2.6182,1.7363 23.012,1.943 37.9078,1.8603 9.8056,-0.055 18.8133,5.3328 23.4061,13.9864 l 0.015,0.028 c 3.1045,5.8563 1.6921,13.0768 -3.3912,17.3209 l -7.911,6.6143 6.2258,8.2816 c 4.6354,6.1595 3.4297,14.8957 -2.7008,19.5808 l -6.245,4.754 4.2758,4.878 c 5.5092,6.2697 4.3474,15.9431 -2.49,20.7245 l -5.5491,3.8998 0.8268,1.5294 c 3.4684,6.3938 1.48,14.3722 -4.5748,18.382 l -5.5808,3.693 -94.4732,1.6674 c -8.8465,0.1654 -17.6379,-1.4882 -25.8231,-4.8505 l -33.3329,-4.9055 c -3.5827,-0.5237 -6.2284,-3.5965 -6.2421,-7.2205 l -0.2206,-82.6917 c 0,-3.996 3.197,-7.248 7.1792,-7.3307"
     style="fill:#ffffff;fill-opacity:1;fill-rule:nonzero;stroke:none;stroke-width:0.137796"
     id="path954" /><path
     d="m 1038.4082,1981.4382 -16.4254,-26.7876 26.1125,-10.5966 16.4253,26.7877 z m 66.5419,23.8939 -18.3683,-29.8329 14.7442,-5.9804 c 3.2245,-1.3091 4.7816,-4.9882 3.4725,-8.2127 -1.3091,-3.2244 -4.9882,-4.7815 -8.2127,-3.4724 l -17.0041,6.9036 -16.4115,-26.7876 15.7501,-6.3939 c 3.2245,-1.309 4.7816,-4.9744 3.4725,-8.2126 -1.3091,-3.2244 -4.9882,-4.7815 -8.2127,-3.4724 l -18.01,7.3032 -19.071,-30.6735 c -1.6122,-2.6044 -4.878,-3.6655 -7.7166,-2.5079 l -2.7559,1.1162 c -3.6103,1.4606 -5.0434,5.8149 -3.004,9.1358 l 17.7344,28.9372 -26.1124,10.5967 -19.07103,-30.6736 c -1.6122,-2.6043 -4.878,-3.6653 -7.7166,-2.5216 l -3.004,1.2264 c -3.6102,1.4607 -5.0433,5.8149 -3.004,9.1359 l 17.72073,28.9372 -14.74423,5.9804 c -3.2245,1.309 -4.7816,4.9882 -3.4725,8.2126 1.309,3.2244 4.9882,4.7816 8.2126,3.4726 l 17.00413,-6.8899 16.1635,26.8841 -15.7501,6.3799 c -3.2244,1.3091 -4.7815,4.9883 -3.4725,8.2127 1.3091,3.2382 4.9883,4.7816 8.2127,3.4725 l 18.01,-7.3032 19.4844,31.638 c 1.6122,2.6181 4.878,3.6929 7.7304,2.5355 l 3.2244,-1.3091 c 3.6103,-1.4607 5.0434,-5.8288 2.9902,-9.1496 l -18.3545,-29.8192 26.1125,-10.5828 19.4706,31.6243 c 1.6122,2.6181 4.8918,3.6929 7.7442,2.5354 l 3.2106,-1.2952 c 3.6103,-1.4745 5.0434,-5.8288 3.004,-9.1497"
     style="fill:#1b3659;fill-opacity:1;fill-rule:nonzero;stroke:none;stroke-width:0.137796"
     id="path1014" /><path
     d="m 1873.1383,338.2825 -18.7679,-42.3724 24.2659,-39.49253 c 2.756,-4.49214 -0.8406,-10.21067 -6.0906,-9.6732 l -46.0929,4.76773 -30.0672,-35.28973 c -3.4173,-4.00987 -9.9627,-2.35627 -11.0788,2.79733 l -9.7147,45.3212 -42.8409,17.69307 c -4.878,2.01186 -5.3327,8.73626 -0.7579,11.39573 l 40.085,23.24626 3.5828,46.2032 c 0.4133,5.26374 6.683,7.77174 10.6102,4.24414 l 34.5043,-30.94907 45.0456,10.88587 c 5.1399,1.2264 9.4528,-3.9548 7.3171,-8.7776"
     style="fill:#f47374;fill-opacity:1;fill-rule:nonzero;stroke:none;stroke-width:0.137796"
     id="path1016" /><path
     d="m 374.57309,525.08773 -14.0828,-31.7896 18.2029,-29.62626 c 2.08074,-3.36227 -0.62008,-7.64773 -4.56105,-7.24813 l -34.5869,3.56893 -22.5435,-26.45693 c -2.56301,-3.01774 -7.48234,-1.7776 -8.30913,2.09453 l -7.28943,33.9944 -32.13412,13.26973 c -3.66538,1.502 -3.9961,6.5592 -0.57874,8.54347 l 30.08096,17.4312 2.68702,34.6696 c 0.30315,3.9548 5.00202,5.8288 7.95086,3.18306 l 25.87817,-23.20493 33.80145,8.14373 c 3.84452,0.93707 7.09652,-2.9488 5.48431,-6.5728"
     style="fill:#f3c267;fill-opacity:1;fill-rule:nonzero;stroke:none;stroke-width:0.137796"
     id="path1018" /><path
     d="m 769.34093,1214.6838 2.23231,-26.3329 22.95688,-13.077 c 2.60436,-1.502 2.38388,-5.3326 -0.3996,-6.504 l -24.34863,-10.2657 -5.34651,-25.8783 c -0.62008,-2.935 -4.34058,-3.9133 -6.31108,-1.626 l -17.27966,19.9806 -26.264,-2.8938 c -2.99019,-0.3445 -5.05713,2.9075 -3.50003,5.4843 l 13.6694,22.6124 -10.88592,24.0868 c -1.24016,2.7421 1.21262,5.7048 4.1339,5.0296 l 25.74037,-6.0217 19.53953,17.7896 c 2.21852,2.0256 5.80123,0.62 6.06304,-2.3839"
     style="fill:#f47374;fill-opacity:1;fill-rule:nonzero;stroke:none;stroke-width:0.137796"
     id="path1020" /><path
     d="m 1778.5401,2024.4045 -10.321,-23.3013 13.3387,-21.7168 c 1.5296,-2.4803 -0.4547,-5.622 -3.3347,-5.3327 l -25.3682,2.6181 -16.5356,-19.4017 c -1.874,-2.2048 -5.4843,-1.2953 -6.0906,1.5433 l -5.3465,24.9274 -23.5632,9.7284 c -2.6871,1.1024 -2.9351,4.8092 -0.4133,6.2697 l 22.0473,12.7876 1.9705,25.4235 c 0.2204,2.8937 3.6792,4.2716 5.8288,2.3286 l 18.9883,-17.0316 24.7759,5.9942 c 2.8248,0.6752 5.2086,-2.1772 4.0236,-4.8367"
     style="fill:#59c69f;fill-opacity:1;fill-rule:nonzero;stroke:none;stroke-width:0.137796"
     id="path1024" /><path
     d="m 2446.6382,573.7075 -40.9256,-5.93907 -16.8249,64.79187 -60.906,-1.29533 -20.5179,46.43746 -23.5081,-10.38986 27.449,-62.1048 57.723,1.24013 17.5001,-67.41 61.5812,8.9292 -1.5708,25.7404"
     style="fill:#59c69f;fill-opacity:1;fill-rule:nonzero;stroke:none;stroke-width:0.137796"
     id="path1026" /><path
     d="m 2479.8648,1571.0671 -6.9139,-40.7738 -66.8378,3.8793 -17.4522,-58.3641 -50.4954,-5.2663 2.673,-25.5608 67.5225,7.0434 16.5462,55.3156 69.5339,-4.0426 10.4041,61.3558 -24.9804,6.4135"
     style="fill:#1b3659;fill-opacity:1;fill-rule:nonzero;stroke:none;stroke-width:0.137796"
     id="path1028" /><path
     d="m 1297.8896,478.33631 c 570.1011,-3.3868 1033.9651,277.7722 1036.0452,627.97279 1.0695,175.1 -113.5447,334.3363 -299.6965,450.1985 l 234.4571,515.0221 -489.2944,-398.5659 c -141.768,46.1076 -302.9646,72.6072 -473.9656,73.6168 C 735.2756,1749.9675 271.4111,1468.8091 269.3314,1118.5485 267.2518,768.34811 727.7888,481.72321 1297.8896,478.33631"
     style="fill:#f7d99b;fill-opacity:1;fill-rule:nonzero;stroke:none;stroke-width:0.594161"
     id="path944" />
         <g
     id="g1097"
     transform="rotate(-12.56486,2776.2645,-7756.5274)"><g
       aria-label="404"
       transform="matrix(1.0000014,0,0,1.0000014,-1922.4507,-489.41362)"
       id="text29812"
       style="font-size:16px;line-height:1.25;white-space:pre;shape-inside:url(#rect29814);fill:#2b2200;stroke:#806600"><path
         d="M 922.20911,897.58016 756.1934,1157.0204 h 166.01571 z m -17.25262,-57.2917 h 82.68234 v 316.73194 h 69.33597 v 54.6875 h -69.33597 v 114.5834 H 922.20911 V 1211.7079 H 702.80796 v -63.4766 z"
         style="font-size:666.667px;-inkscape-font-specification:'sans-serif, Normal'"
         id="path1064" /><path
         d="m 1306.3239,883.58275 q -50.7813,0 -76.4975,50.13024 -25.3906,49.80471 -25.3906,150.06521 0,99.9349 25.3906,150.0651 25.7162,49.8048 76.4975,49.8048 51.1068,0 76.4974,-49.8048 25.7162,-50.1302 25.7162,-150.0651 0,-100.2605 -25.7162,-150.06521 -25.3906,-50.13024 -76.4974,-50.13024 z m 0,-52.08335 q 81.7057,0 124.6745,64.77867 43.2943,64.45316 43.2943,187.50013 0,122.7214 -43.2943,187.5001 -42.9688,64.4531 -124.6745,64.4531 -81.7058,0 -125.0001,-64.4531 -42.9688,-64.7787 -42.9688,-187.5001 0,-123.04697 42.9688,-187.50013 43.2943,-64.77867 125.0001,-64.77867 z"
         style="font-size:666.667px;-inkscape-font-specification:'sans-serif, Normal'"
         id="path1066" /><path
         d="m 1770.5168,897.58016 -166.0157,259.44024 h 166.0157 z m -17.2526,-57.2917 h 82.6823 v 316.73194 h 69.336 v 54.6875 h -69.336 v 114.5834 h -65.4297 v -114.5834 h -219.4012 v -63.4766 z"
         style="font-size:666.667px;-inkscape-font-specification:'sans-serif, Normal'"
         id="path1068" /></g><g
       aria-label="404"
       transform="matrix(1.0000014,0,0,1.0000014,-1943.8805,-502.68476)"
       id="text27488"
       style="font-size:16px;line-height:1.25;white-space:pre;shape-inside:url(#rect27490);fill:#dde9af;stroke:#806600;stroke-width:7.42677"><path
         d="M 922.20911,897.58016 756.1934,1157.0204 h 166.01571 z m -17.25262,-57.2917 h 82.68234 v 316.73194 h 69.33597 v 54.6875 h -69.33597 v 114.5834 H 922.20911 V 1211.7079 H 702.80796 v -63.4766 z"
         style="font-size:666.667px;-inkscape-font-specification:'sans-serif, Normal'"
         id="path1039" /><path
         d="m 1306.3239,883.58275 q -50.7813,0 -76.4975,50.13024 -25.3906,49.80471 -25.3906,150.06521 0,99.9349 25.3906,150.0651 25.7162,49.8048 76.4975,49.8048 51.1068,0 76.4974,-49.8048 25.7162,-50.1302 25.7162,-150.0651 0,-100.2605 -25.7162,-150.06521 -25.3906,-50.13024 -76.4974,-50.13024 z m 0,-52.08335 q 81.7057,0 124.6745,64.77867 43.2943,64.45316 43.2943,187.50013 0,122.7214 -43.2943,187.5001 -42.9688,64.4531 -124.6745,64.4531 -81.7058,0 -125.0001,-64.4531 -42.9688,-64.7787 -42.9688,-187.5001 0,-123.04697 42.9688,-187.50013 43.2943,-64.77867 125.0001,-64.77867 z"
         style="font-size:666.667px;-inkscape-font-specification:'sans-serif, Normal'"
         id="path1041" /><path
         d="m 1770.5168,897.58016 -166.0157,259.44024 h 166.0157 z m -17.2526,-57.2917 h 82.6823 v 316.73194 h 69.336 v 54.6875 h -69.336 v 114.5834 h -65.4297 v -114.5834 h -219.4012 v -63.4766 z"
         style="font-size:666.667px;-inkscape-font-specification:'sans-serif, Normal'"
         id="path1043" /></g></g><g
     id="g29869"
     transform="matrix(0.93078731,0,0,0.93078731,-73.944002,204.44235)"><path
       d="m 687.72412,2061.0845 c 2.63191,-23.3565 5.77367,-47.2228 16.61824,-68.0576 13.17335,-25.3408 36.30936,-43.6126 56.53788,-63.7447 37.78377,-37.6184 66.85882,-83.9731 84.31762,-134.3928 13.49028,-38.9964 20.21475,-80.542 38.81726,-117.3612 11.35442,-22.4884 26.84274,-42.5929 39.74049,-64.227 30.48057,-51.1362 47.08504,-111.5599 88.42399,-154.3595 7.9508,51.8941 -7.7717,106.9576 -41.90391,146.7807 -10.18316,11.8643 -21.99232,22.5711 -29.75026,36.1578 -14.0828,24.6794 -12.80129,54.7741 -14.45484,83.1464 -3.10042,53.3272 -18.12024,105.9241 -43.65391,152.8024 -27.13211,49.8134 -66.28008,94.1701 -80.77626,149.0131 -10.87214,41.1047 -7.63393,87.2113 -30.81129,122.8317 -2.50789,3.8583 -5.38784,7.7304 -5.99413,12.3052 -0.3445,2.5631 0.0551,5.1674 0.45472,7.7166 0.50985,3.3072 1.03348,6.628 1.5571,9.9352 5.26382,33.6361 10.72056,76.4356 -18.18913,101.611 -20.0356,17.4589 -45.8173,17.8447 -60.21704,-5.3327 -14.4824,-23.3427 -13.20089,-57.4886 -12.12608,-83.7526 1.79135,-43.7366 6.47643,-87.5972 11.40955,-131.072"
       style="fill:#43927a;fill-opacity:1;fill-rule:nonzero;stroke:none;stroke-width:0.137796"
       id="path1032" /><path
       d="m 635.65084,2034.0213 c 11.2442,-38.9413 28.703,-76.0361 37.45308,-115.6112 8.47448,-38.3901 8.54337,-78.0755 8.57093,-117.4026 0.0276,-43.0889 0.0689,-86.1779 0.0964,-129.2668 0.0137,-26.8152 0.0413,-53.7957 4.47839,-80.2389 9.53551,-56.9237 39.1204,-109.5619 44.1362,-167.0505 2.1634,-24.8723 -0.34449,-50.0064 2.38387,-74.8098 1.5571,-14.1654 5.19493,-28.634 11.75404,-41.2149 7.05517,-13.5177 26.55337,-12.9252 32.94713,0.9233 14.37216,31.142 23.4805,64.7919 17.67928,98.1524 -3.48626,20.008 -12.15366,38.6657 -18.63008,57.9158 -28.81324,85.7094 -13.51783,180.596 -35.81329,268.2483 -6.72447,26.4569 -16.89384,52.404 -18.0789,79.6739 -2.8386,65.288 45.91377,124.9125 41.44917,190.104 -3.66538,53.4512 -42.09681,97.6838 -58.21899,148.765 -9.03944,28.5927 -10.96859,59.1146 -20.64191,87.4869 -7.50989,22.0612 -24.99627,48.8351 -52.14216,42.1382 -25.76793,-6.3524 -17.98244,-27.3802 -16.83872,-47.4847 3.89964,-67.9749 0.23426,-133.9243 19.41551,-200.3284"
       style="fill:#38816a;fill-opacity:1;fill-rule:nonzero;stroke:none;stroke-width:0.137796"
       id="path1034" /><path
       d="m 576.6602,2069.7106 c 1.12992,-20.2423 4.54728,-40.5811 1.72246,-60.658 -2.39767,-16.949 -9.13591,-32.9196 -13.95879,-49.3311 -9.02567,-30.77 -11.25796,-63.0695 -13.44892,-95.0658 -3.98232,-58.1639 -7.95085,-116.3277 -11.9194,-174.4916 -6.18705,-90.422 -12.38789,-181.0921 -29.29552,-270.1086 -4.69885,-24.7206 -9.96268,-51.5082 1.14371,-74.0793 2.34254,-4.754 6.95872,-9.7973 12.00208,-8.2127 3.59648,1.1299 5.36028,5.0847 6.66934,8.6399 36.957,100.426 50.91578,208.5411 92.17203,307.2722 9.88,23.6596 21.37222,46.9197 26.48446,72.04 6.14572,30.1774 2.76972,61.3332 1.9705,92.1169 -1.12994,44.1362 3.16932,88.6169 15.35052,131.0444 6.37997,22.199 14.92336,43.9019 18.4096,66.7348 4.36814,28.4825 0.70277,57.4886 -2.0256,86.1641 -5.23627,55.1323 -7.01384,110.5954 -5.31895,165.9482 1.00592,32.5475 -26.47069,31.6932 -44.65981,11.6989 -12.7324,-13.9863 -12.60838,-29.3368 -16.97652,-46.7405 -14.30328,-57.1442 -41.79367,-101.0186 -38.32119,-162.9718"
       style="fill:#43927a;fill-opacity:1;fill-rule:nonzero;stroke:none;stroke-width:0.137796"
       id="path1036" /><path
       d="m 748.28564,2157.9554 c 24.29352,-39.0377 72.68761,-61.223 88.21728,-104.5186 3.95476,-11.0099 5.49808,-22.8604 10.32094,-33.5259 10.72056,-23.6734 35.09675,-37.0534 59.05955,-47.9393 3.32089,-1.5158 7.11029,0.8956 7.15164,4.561 0.0827,5.815 -2.67326,11.3682 -7.49614,14.6202 -18.46472,12.4293 -32.49238,31.4176 -38.73457,52.8312 -7.39966,25.3683 -4.18901,53.1756 -13.39381,77.9514 -7.7166,20.7935 -23.61831,37.7976 -31.08687,58.6875 -6.82092,19.0848 -6.10438,39.9472 -9.31504,59.9828 -3.21065,20.0218 -12.1123,41.2838 -30.49434,49.7583 -66.54189,30.6597 -49.90987,-107.1919 -34.22864,-132.4086"
       style="fill:#38816a;fill-opacity:1;fill-rule:nonzero;stroke:none;stroke-width:0.137796"
       id="path1038" /><path
       d="m 471.53531,2145.0714 c 1.03347,18.8644 -1.84648,38.6519 5.53942,56.0418 4.72641,11.134 13.21467,20.1183 20.20094,29.9845 24.48643,34.6558 33.37431,83.7389 71.00651,103.2371 2.48033,1.2953 5.25004,2.4528 8.00597,1.9292 3.85829,-0.7166 6.37997,-4.4371 7.93707,-8.0474 9.21858,-21.4962 -1.12992,-45.707 -7.26187,-68.2919 -1.07481,-3.9547 -1.97049,-8.3504 -0.0964,-11.9883 2.08072,-3.996 6.80713,-5.7323 10.03157,-8.874 6.42132,-6.2422 5.81502,-16.5907 4.54728,-25.4924 -3.19686,-22.199 -7.67525,-44.2188 -13.43514,-65.908 -3.252,-12.2914 -7.01384,-24.6931 -14.11036,-35.2483 -7.7855,-11.6301 -19.12614,-20.3112 -29.72268,-29.4333 -46.86458,-40.3055 -82.76053,-93.302 -102.86504,-151.8241 -4.34059,-12.6773 -8.22644,-26.0574 -17.21077,-35.9787 -8.98432,-9.9213 -24.99627,-15.0198 -35.93731,-7.3308 -7.78549,5.4843 24.1006,56.7859 27.82111,62.9317 10.62409,17.5828 10.76189,32.8782 16.76981,52.3902 14.71667,47.8429 45.96889,90.6562 48.77995,141.9027"
       style="fill:#43927a;fill-opacity:1;fill-rule:nonzero;stroke:none;stroke-width:0.137796"
       id="path1040" /><path
       d="m 508.6301,2166.8846 c -6.95872,-17.9962 -13.98634,-36.2267 -16.27375,-55.3942 -2.54924,-21.3171 0.82677,-43.1027 -2.81105,-64.2544 -4.6713,-27.1873 -20.53167,-51.1087 -28.37228,-77.5519 -5.67721,-19.0986 -7.06896,-39.1617 -10.47253,-58.7977 -9.72843,-56.1383 -36.11644,-110.995 -28.55142,-167.464 1.65355,-12.2776 7.19298,-26.5947 19.38795,-28.6892 11.03749,-1.9016 21.08285,8.1989 23.94903,19.0435 2.86616,10.8445 0.73032,22.2816 -0.0551,33.4707 -2.20475,31.2109 6.69691,63.0832 24.74824,88.6169 17.33478,24.5415 42.49641,43.0062 58.09497,68.6777 19.13992,31.5003 21.74428,69.9455 31.50027,105.497 19.42929,70.6895 68.12654,132.3672 77.01441,205.1513 3.52758,28.9648 -3.26578,64.1718 -29.99828,75.7329 -77.3038,33.4707 -100.64651,-98.7449 -118.16044,-144.0386"
       style="fill:#38816a;fill-opacity:1;fill-rule:nonzero;stroke:none;stroke-width:0.137796"
       id="path1042" /><path
       d="m 643.78084,2256.6176 h 177.41289 c 12.12608,0 21.08285,11.3407 18.2718,23.1774 l -64.66785,272.7126 c -2.01183,8.4885 -9.57686,14.4686 -18.28559,14.4686 H 656.14117 643.78084 543.39614 c -8.69495,0 -16.25998,-5.9801 -18.2718,-14.4686 L 460.4427,2279.795 c -2.79727,-11.8367 6.14572,-23.1774 18.28559,-23.1774 h 165.05255"
       style="fill:#f35f52;fill-opacity:1;fill-rule:nonzero;stroke:none;stroke-width:0.137796"
       id="path1044" /></g></svg>
